<svg width="443" height="114" viewBox="0 0 443 114" fill="none" xmlns="http://www.w3.org/2000/svg">
<path d="M88.3057 107.272L15.1935 71.6876V0.650024L88.3057 36.2529" fill="url(#paint0_linear_93_315)"/>
<path d="M65.3927 19.8812V73.65L7.82996 101.684V47.915L65.3927 19.8812ZM73.2234 7.47162L0.111328 42.9811V114L73.2234 78.5092V7.49031V7.47162Z" fill="url(#paint1_linear_93_315)"/>
<path d="M65.3927 25.0955L15.1935 0.650024V71.6876L42.3116 84.8822L65.3927 73.65V25.0955Z" fill="url(#paint2_linear_93_315)"/>
<path d="M159.698 16.1621V21.7688H129.627V39.4301H157.437V45.0368H129.627V63.0719H159.698V68.6787H123.684V16.0499L159.698 16.1621Z" fill="#253E53"/>
<path d="M211.935 16.162L187.882 70.3607L163.829 16.162H170.22L187.882 55.9326L205.562 16.162H211.935Z" fill="#253E53"/>
<path d="M255.163 16.1621V21.7688H225.092V39.4301H252.901V45.0368H225.092V63.0719H255.163V68.6787H218.999V16.0499L255.163 16.1621Z" fill="#253E53"/>
<path d="M297.867 68.7908L283.495 48.4943H270.207V68.7908H264.19V16.162H287.495C289.694 16.0551 291.893 16.3941 293.958 17.1584C296.023 17.9228 297.912 19.0969 299.512 20.61C301.041 22.1399 302.234 23.9728 303.013 25.9909C303.792 28.0089 304.14 30.1676 304.035 32.3282C304.178 36.2972 302.846 40.1786 300.297 43.224C297.694 46.1034 294.107 47.9037 290.242 48.27L304.745 68.8282L297.867 68.7908ZM270.207 42.8502H287.495C288.899 42.9178 290.303 42.6991 291.62 42.2076C292.937 41.716 294.141 40.9618 295.158 39.9907C296.13 38.9752 296.886 37.7719 297.378 36.4543C297.869 35.1368 298.087 33.7327 298.017 32.3282C298.087 30.9236 297.869 29.5196 297.378 28.202C296.886 26.8844 296.13 25.6811 295.158 24.6656C294.141 23.6945 292.937 22.9403 291.62 22.4488C290.303 21.9572 288.899 21.7386 287.495 21.8061H270.207V42.8502Z" fill="#253E53"/>
<path d="M349.132 16.1621V21.7688H319.061V39.4301H346.871V45.0368H319.061V63.0719H349.132V68.6787H313.043V16.0499L349.132 16.1621Z" fill="#253E53"/>
<path d="M391.22 43.7473C392.934 44.9036 394.323 46.4793 395.255 48.3244C396.188 50.1695 396.632 52.2225 396.546 54.288C396.645 56.4523 396.208 58.6074 395.276 60.5631C394.344 62.5188 392.944 64.2149 391.201 65.5015C387.538 68.2426 382.43 69.6194 375.876 69.6318C369.204 69.6318 364.102 68.1741 360.532 65.2772C358.733 63.7717 357.314 61.8639 356.388 59.7081C355.463 57.5523 355.058 55.209 355.206 52.8676H361.205C361.205 60.3433 366.096 64.0811 375.876 64.0811C379.711 64.3113 383.528 63.4009 386.847 61.4646C388.023 60.7247 388.987 59.691 389.642 58.4653C390.298 57.2396 390.623 55.8643 390.585 54.4749C390.61 53.1387 390.276 51.8202 389.619 50.6566C388.962 49.493 388.004 48.5269 386.847 47.8589C383.42 46.1657 379.691 45.1684 375.876 44.9247C369.503 44.1585 364.775 42.682 361.654 40.4767C360.039 39.3227 358.74 37.7822 357.875 35.9963C357.01 34.2103 356.606 32.2359 356.701 30.2537C356.623 28.2003 357.04 26.1583 357.919 24.3006C358.797 22.443 360.11 20.8244 361.747 19.5822C365.149 16.9283 369.858 15.6014 375.876 15.6014C381.894 15.6014 386.604 17.0031 390.005 19.8064C391.698 21.2866 393.03 23.1333 393.901 25.206C394.772 27.2787 395.159 29.5228 395.033 31.7675H389.071C389.071 24.7404 384.71 21.2331 375.988 21.2455C372.553 21.0345 369.137 21.8966 366.214 23.7125C365.133 24.4181 364.254 25.3914 363.661 26.5377C363.068 27.6839 362.782 28.9642 362.831 30.2537C362.772 31.5038 363.056 32.7463 363.652 33.8466C364.248 34.9469 365.134 35.863 366.214 36.4959C369.222 38.1447 372.563 39.0964 375.988 39.2806C382.829 39.9659 387.906 41.4548 391.22 43.7473Z" fill="#253E53"/>
<path d="M442.709 16.162V21.7688H424.02V68.7534H418.002V21.8062H399.107V16.1994L442.709 16.162Z" fill="#253E53"/>
<path d="M198.235 95.2732C198.659 95.8026 198.884 96.464 198.871 97.1421C198.897 97.6171 198.804 98.091 198.602 98.5215C198.4 98.952 198.094 99.3257 197.712 99.6091C196.71 100.244 195.532 100.545 194.348 100.469H188.741V88.2461H193.993C195.099 88.1881 196.197 88.4755 197.133 89.0684C197.501 89.332 197.797 89.6843 197.993 90.0926C198.189 90.501 198.279 90.9523 198.254 91.4046C198.27 92.0048 198.093 92.5944 197.749 93.0866C197.398 93.5682 196.909 93.9329 196.348 94.1332C197.086 94.293 197.75 94.6941 198.235 95.2732ZM190.479 93.7033H193.881C194.541 93.7336 195.194 93.5572 195.75 93.1987C195.975 93.027 196.154 92.8024 196.271 92.5448C196.389 92.2873 196.441 92.0047 196.423 91.7223C196.44 91.4371 196.388 91.1519 196.271 90.8914C196.154 90.6309 195.975 90.4029 195.75 90.2271C195.199 89.8561 194.544 89.6726 193.881 89.7038H190.479V93.7033ZM197.114 97.0861C197.127 96.7897 197.07 96.4944 196.946 96.2247C196.823 95.955 196.637 95.7185 196.404 95.5349C195.775 95.1552 195.044 94.979 194.311 95.0303H190.479V99.1793H194.311C196.18 99.1793 197.114 98.4691 197.114 97.0861Z" fill="#336E8C"/>
<path d="M205.281 88.321H207.019V100.544H205.281V88.321Z" fill="#336E8C"/>
<path d="M218.569 95.18H216.028V100.544H214.308V88.321H216.028V93.6288H218.607L222.457 88.321H224.326L219.952 94.3203L224.606 100.544H222.55L218.569 95.18Z" fill="#336E8C"/>
<path d="M240.342 88.321V100.544H238.585V95.1052H231.577V100.544H229.82V88.321H231.577V93.5914H238.585V88.321H240.342Z" fill="#336E8C"/>
<path d="M255.574 97.4974H249.089L247.743 100.544H245.874L251.481 88.321H253.2L258.807 100.544H256.938L255.574 97.4974ZM254.976 96.0957L252.341 90.1152L249.705 96.1892L254.976 96.0957Z" fill="#336E8C"/>
<path d="M280.954 89.8536H276.767V100.544H275.067V89.8536H270.899V88.321H280.972L280.954 89.8536Z" fill="#336E8C"/>
<path d="M293.905 97.4974H287.42L286.075 100.544H284.206L289.812 88.321H291.532L297.139 100.544H295.27L293.905 97.4974ZM293.307 96.0957L290.672 90.1152L288.037 96.1892L293.307 96.0957Z" fill="#336E8C"/>
<path d="M322.537 99.0299V103.216H320.911V100.544H310.856V103.216H309.23V99.0299H309.829C310.595 99.0299 311.137 98.3758 311.454 97.161C311.817 95.5348 312.005 93.8745 312.015 92.2084L312.146 88.265H320.743V98.9739L322.537 99.0299ZM313.193 96.6938C313.096 97.5627 312.73 98.3796 312.146 99.0299H319.042V89.8535H313.679V92.414C313.599 93.8506 313.424 95.2803 313.155 96.6938H313.193Z" fill="#336E8C"/>
<path d="M337.918 95.2735C338.336 95.8065 338.56 96.4654 338.554 97.1424C338.576 97.6169 338.482 98.0896 338.28 98.5196C338.079 98.9495 337.775 99.3236 337.395 99.6093C336.388 100.249 335.203 100.55 334.012 100.469H328.406V88.2463H333.657C334.764 88.1833 335.863 88.4711 336.797 89.0686C337.165 89.3322 337.461 89.6845 337.657 90.0929C337.853 90.5012 337.943 90.9525 337.918 91.4048C337.935 92.005 337.758 92.5946 337.414 93.0868C337.07 93.5762 336.579 93.943 336.012 94.1334C336.754 94.2985 337.422 94.6983 337.918 95.2735ZM330.144 93.7036H333.564C334.224 93.7314 334.876 93.5552 335.433 93.1989C335.658 93.0272 335.837 92.8026 335.954 92.5451C336.072 92.2875 336.124 92.005 336.106 91.7225C336.125 91.4353 336.071 91.1479 335.95 90.8867C335.83 90.6255 335.645 90.3988 335.414 90.2274C334.864 89.8551 334.208 89.6715 333.545 89.7041H330.125L330.144 93.7036ZM336.741 97.0863C336.766 96.7904 336.716 96.4929 336.595 96.2216C336.474 95.9503 336.286 95.7141 336.049 95.5351C335.411 95.1616 334.676 94.986 333.938 95.0305H330.106V99.1795H333.938C335.844 99.1795 336.741 98.4693 336.741 97.0863Z" fill="#336E8C"/>
<path d="M353.823 99.0299V100.544H344.964V88.321H353.561V89.8536H346.684V93.5914H352.814V95.0678H346.684V99.0113L353.823 99.0299Z" fill="#336E8C"/>
<path d="M368.513 89.461C368.965 89.8408 369.324 90.3202 369.561 90.8616C369.797 91.4031 369.906 91.9919 369.877 92.5821C369.906 93.1751 369.798 93.7667 369.561 94.3111C369.324 94.8556 368.966 95.3383 368.513 95.7219C367.437 96.5224 366.114 96.9193 364.775 96.8433H361.747V100.581H360.009V88.3584H364.775C366.111 88.277 367.434 88.6672 368.513 89.461ZM367.26 94.6192C367.554 94.3709 367.784 94.0571 367.933 93.7033C368.083 93.3494 368.147 92.9653 368.12 92.5821C368.142 92.1994 368.076 91.8167 367.927 91.4635C367.778 91.1104 367.55 90.7961 367.26 90.545C366.514 90.0368 365.619 89.7933 364.719 89.8535H361.747V95.3294H364.775C365.678 95.3841 366.573 95.1341 367.317 94.6192H367.26Z" fill="#336E8C"/>
<path d="M375.857 88.321H377.577V100.544H375.857V88.321Z" fill="#336E8C"/>
<defs>
<linearGradient id="paint0_linear_93_315" x1="15.1935" y1="53.9703" x2="88.3057" y2="53.9703" gradientUnits="userSpaceOnUse">
<stop offset="0.26" stop-color="#41568F"/>
<stop offset="1" stop-color="#00B9CF"/>
</linearGradient>
<linearGradient id="paint1_linear_93_315" x1="73.9336" y1="60.7919" x2="3.99868" y2="60.7919" gradientUnits="userSpaceOnUse">
<stop stop-color="#E5E7E7"/>
<stop offset="0.5" stop-color="#D1D4D4"/>
<stop offset="1" stop-color="#BCBFC1"/>
</linearGradient>
<linearGradient id="paint2_linear_93_315" x1="15.0253" y1="42.7568" x2="88.4365" y2="42.7568" gradientUnits="userSpaceOnUse">
<stop stop-color="#00B9CF"/>
<stop offset="0.5" stop-color="#0094CC"/>
<stop offset="1" stop-color="#41538D"/>
</linearGradient>
</defs>
</svg>
