<svg width="1015" height="262" viewBox="0 0 1015 262" fill="none" xmlns="http://www.w3.org/2000/svg">
<g clip-path="url(#clip0_15_191)">
<path d="M202.326 245.781L34.8115 164.25V1.48926L202.326 83.0624" fill="url(#paint0_linear_15_191)"/>
<path d="M149.827 45.5517V168.747L17.9398 232.978V109.783L149.827 45.5517ZM167.769 17.1189L0.254883 98.4781V261.196L167.769 179.88V17.1617V17.1189Z" fill="url(#paint1_linear_15_191)"/>
<path d="M149.828 57.4986L34.8115 1.48926V164.25L96.9444 194.482L149.828 168.747V57.4986Z" fill="url(#paint2_linear_15_191)"/>
<path d="M365.899 37.0305V49.8766H297.001V90.3421H360.719V103.188H297.001V144.51H365.899V157.356H283.384V36.7734L365.899 37.0305Z" fill="white"/>
<path d="M485.585 37.0303L430.474 161.21L375.364 37.0303H390.007L430.474 128.153L470.983 37.0303H485.585Z" fill="white"/>
<path d="M584.628 37.0305V49.8766H515.73V90.3421H579.446V103.188H515.73V144.51H584.628V157.356H501.77V36.7734L584.628 37.0305Z" fill="white"/>
<path d="M682.472 157.613L649.543 111.11H619.097V157.613H605.311V37.0302H658.707C663.746 36.7853 668.784 37.562 673.515 39.3132C678.247 41.0645 682.575 43.7546 686.241 47.2214C689.744 50.7267 692.477 54.9263 694.262 59.5501C696.047 64.1738 696.844 69.1198 696.604 74.0701C696.931 83.1639 693.88 92.0569 688.039 99.0345C682.075 105.632 673.857 109.757 665.001 110.596L698.23 157.699L682.472 157.613ZM619.097 98.1781H658.707C661.924 98.333 665.141 97.8319 668.159 96.7058C671.176 95.5794 673.935 93.8514 676.265 91.6264C678.492 89.2997 680.224 86.5427 681.351 83.5238C682.476 80.5052 682.976 77.2881 682.815 74.0701C682.976 70.8519 682.476 67.6351 681.351 64.6162C680.224 61.5973 678.492 58.8403 676.265 56.5136C673.935 54.2886 671.176 52.5606 668.159 51.4345C665.141 50.3081 661.924 49.8073 658.707 49.9619H619.097V98.1781Z" fill="white"/>
<path d="M799.93 37.0305V49.8766H731.032V90.3421H794.75V103.188H731.032V144.51H799.93V157.356H717.243V36.7734L799.93 37.0305Z" fill="white"/>
<path d="M896.362 100.234C900.289 102.883 903.471 106.493 905.607 110.721C907.744 114.948 908.762 119.652 908.565 124.384C908.791 129.343 907.79 134.281 905.655 138.762C903.519 143.243 900.312 147.129 896.318 150.077C887.926 156.357 876.222 159.512 861.206 159.54C845.919 159.54 834.229 156.2 826.05 149.563C821.928 146.113 818.676 141.742 816.555 136.803C814.435 131.864 813.507 126.495 813.847 121.13H827.591C827.591 138.258 838.798 146.822 861.206 146.822C869.992 147.35 878.738 145.264 886.342 140.827C889.037 139.132 891.245 136.764 892.746 133.955C894.249 131.147 894.994 127.996 894.907 124.813C894.964 121.751 894.199 118.73 892.693 116.064C891.188 113.398 888.993 111.185 886.342 109.654C878.49 105.775 869.947 103.49 861.206 102.931C846.604 101.176 835.771 97.7928 828.62 92.74C824.92 90.096 821.944 86.5664 819.962 82.4746C817.98 78.3825 817.054 73.8587 817.272 69.3171C817.093 64.6124 818.049 59.9338 820.063 55.6774C822.074 51.4213 825.083 47.7128 828.833 44.8666C836.628 38.786 847.417 35.7458 861.206 35.7458C874.994 35.7458 885.786 38.9574 893.578 45.3803C897.457 48.7718 900.509 53.0029 902.504 57.7519C904.5 62.5008 905.387 67.6425 905.098 72.7856H891.438C891.438 56.6851 881.446 48.6492 861.462 48.6776C853.592 48.1941 845.765 50.1694 839.068 54.33C836.591 55.9466 834.577 58.1767 833.219 60.8031C831.86 63.4292 831.205 66.3626 831.317 69.3171C831.182 72.1814 831.832 75.0282 833.198 77.5492C834.564 80.0702 836.594 82.1691 839.068 83.6192C845.96 87.397 853.615 89.5775 861.462 89.9995C877.136 91.5697 888.769 94.9811 896.362 100.234Z" fill="white"/>
<path d="M1014.33 37.0303V49.8766H971.513V157.527H957.725V49.9622H914.433V37.116L1014.33 37.0303Z" fill="white"/>
<path d="M454.195 218.29C455.167 219.503 455.682 221.018 455.653 222.572C455.712 223.66 455.499 224.746 455.036 225.732C454.574 226.718 453.872 227.575 452.997 228.224C450.701 229.679 448.002 230.368 445.29 230.194H432.443V202.189H444.476C447.01 202.056 449.526 202.715 451.671 204.073C452.514 204.677 453.192 205.484 453.641 206.42C454.09 207.356 454.296 208.39 454.239 209.426C454.276 210.801 453.87 212.152 453.082 213.28C452.278 214.383 451.157 215.219 449.872 215.678C451.563 216.044 453.084 216.963 454.195 218.29ZM436.425 214.693H444.22C445.732 214.762 447.228 214.358 448.502 213.537C449.017 213.143 449.428 212.629 449.696 212.038C449.966 211.448 450.085 210.801 450.044 210.154C450.083 209.5 449.964 208.847 449.696 208.25C449.428 207.653 449.017 207.131 448.502 206.728C447.239 205.878 445.739 205.458 444.22 205.529H436.425V214.693ZM451.627 222.443C451.657 221.764 451.526 221.088 451.242 220.47C450.96 219.852 450.534 219.31 450 218.889C448.559 218.019 446.884 217.616 445.205 217.733H436.425V227.239H445.205C449.487 227.239 451.627 225.612 451.627 222.443Z" fill="white"/>
<path d="M470.339 202.361H474.321V230.366H470.339V202.361Z" fill="white"/>
<path d="M500.784 218.076H494.962V230.366H491.021V202.361H494.962V214.522H500.871L509.692 202.361H513.975L503.953 216.106L514.616 230.366H509.906L500.784 218.076Z" fill="white"/>
<path d="M550.67 202.361V230.366H546.645V217.905H530.588V230.366H526.562V202.361H530.588V214.436H546.645V202.361H550.67Z" fill="white"/>
<path d="M585.57 223.386H570.712L567.628 230.366H563.346L576.192 202.361H580.131L592.978 230.366H588.695L585.57 223.386ZM584.2 220.174L578.163 206.472L572.123 220.388L584.2 220.174Z" fill="white"/>
<path d="M643.721 205.872H634.127V230.366H630.232V205.872H620.683V202.361H643.762L643.721 205.872Z" fill="white"/>
<path d="M673.394 223.386H658.536L655.454 230.366H651.172L664.016 202.361H667.957L680.804 230.366H676.522L673.394 223.386ZM672.024 220.174L665.987 206.472L659.949 220.388L672.024 220.174Z" fill="white"/>
<path d="M738.996 226.897V236.488H735.27V230.366H712.232V236.488H708.507V226.897H709.879C711.634 226.897 712.876 225.398 713.602 222.615C714.434 218.889 714.865 215.085 714.888 211.268L715.188 202.232H734.885V226.769L738.996 226.897ZM717.587 221.544C717.365 223.535 716.526 225.407 715.188 226.897H730.988V205.872H718.7V211.739C718.517 215.03 718.116 218.306 717.5 221.544H717.587Z" fill="white"/>
<path d="M774.237 218.29C775.194 219.512 775.708 221.021 775.694 222.572C775.744 223.66 775.529 224.743 775.066 225.728C774.606 226.713 773.909 227.57 773.038 228.225C770.731 229.69 768.016 230.38 765.287 230.194H752.443V202.19H764.474C767.01 202.045 769.528 202.705 771.668 204.074C772.511 204.678 773.19 205.485 773.639 206.421C774.088 207.356 774.294 208.39 774.237 209.426C774.276 210.802 773.87 212.152 773.082 213.28C772.294 214.402 771.169 215.242 769.87 215.678C771.57 216.056 773.1 216.972 774.237 218.29ZM756.425 214.693H764.261C765.773 214.757 767.267 214.353 768.543 213.537C769.059 213.144 769.469 212.629 769.737 212.039C770.007 211.449 770.126 210.802 770.085 210.154C770.129 209.496 770.005 208.838 769.728 208.239C769.453 207.641 769.029 207.121 768.5 206.729C767.239 205.876 765.736 205.455 764.217 205.53H756.381L756.425 214.693ZM771.54 222.444C771.597 221.766 771.483 221.084 771.205 220.463C770.928 219.841 770.498 219.3 769.954 218.89C768.493 218.034 766.809 217.632 765.118 217.734H756.338V227.24H765.118C769.485 227.24 771.54 225.613 771.54 222.444Z" fill="white"/>
<path d="M810.678 226.897V230.366H790.38V202.361H810.078V205.872H794.321V214.436H808.366V217.819H794.321V226.854L810.678 226.897Z" fill="white"/>
<path d="M844.336 204.973C845.372 205.843 846.194 206.941 846.737 208.182C847.278 209.422 847.528 210.771 847.461 212.124C847.528 213.482 847.28 214.838 846.737 216.085C846.194 217.333 845.374 218.439 844.336 219.318C841.871 221.152 838.839 222.061 835.771 221.887H828.834V230.451H824.852V202.446H835.771C838.832 202.26 841.864 203.154 844.336 204.973ZM841.465 216.791C842.139 216.222 842.666 215.503 843.007 214.693C843.351 213.882 843.497 213.002 843.435 212.124C843.486 211.247 843.335 210.37 842.993 209.561C842.652 208.752 842.129 208.032 841.465 207.456C839.756 206.292 837.705 205.734 835.643 205.872H828.834V218.418H835.771C837.84 218.544 839.891 217.971 841.596 216.791H841.465Z" fill="white"/>
<path d="M861.162 202.361H865.103V230.366H861.162V202.361Z" fill="white"/>
</g>
<defs>
<linearGradient id="paint0_linear_15_191" x1="34.8115" y1="123.656" x2="202.326" y2="123.656" gradientUnits="userSpaceOnUse">
<stop offset="0.26" stop-color="#41568F"/>
<stop offset="1" stop-color="#00B9CF"/>
</linearGradient>
<linearGradient id="paint1_linear_15_191" x1="169.396" y1="139.286" x2="9.16157" y2="139.286" gradientUnits="userSpaceOnUse">
<stop stop-color="#E5E7E7"/>
<stop offset="0.5" stop-color="#D1D4D4"/>
<stop offset="1" stop-color="#BCBFC1"/>
</linearGradient>
<linearGradient id="paint2_linear_15_191" x1="34.4261" y1="97.9641" x2="202.626" y2="97.9641" gradientUnits="userSpaceOnUse">
<stop stop-color="#00B9CF"/>
<stop offset="0.5" stop-color="#0094CC"/>
<stop offset="1" stop-color="#41538D"/>
</linearGradient>
<clipPath id="clip0_15_191">
<rect width="1015" height="261.196" fill="white"/>
</clipPath>
</defs>
</svg>
